HIERARCHY
ROOT Hips
{
	OFFSET 0.000000 0.000000 0.000000
	CHANNELS 6 Xposition Yposition Zposition Zrotation Xrotation Yrotation
	JOINT RightUpLeg
	{
		OFFSET -10.795800 0.000000 0.000000
		CHANNELS 3 Zrotation Xrotation Yrotation
		JOINT RightLeg
		{
			OFFSET 0.000000 -39.557900 0.000000
			CHANNELS 3 Zrotation Xrotation Yrotation
			JOINT RightFoot
			{
				OFFSET 0.000000 -40.613400 0.000000
				CHANNELS 3 Zrotation Xrotation Yrotation
				JOINT RightToe
				{
					OFFSET 0.000000 -1.003500 12.392200
					CHANNELS 3 Zrotation Xrotation Yrotation
					JOINT RightToeEnd
					{
						OFFSET 0.000000 1.088300 5.767000
						CHANNELS 3 Zrotation Xrotation Yrotation
						End Site
						{
						    OFFSET 0.000000 0.927200 4.913300
						}
					}
				}
			}
		}
	}
	JOINT LeftUpLeg
	{
		OFFSET 10.795800 0.000000 0.000000
		CHANNELS 3 Zrotation Xrotation Yrotation
		JOINT LeftLeg
		{
			OFFSET 0.000000 -39.557900 0.000000
			CHANNELS 3 Zrotation Xrotation Yrotation
			JOINT LeftFoot
			{
				OFFSET 0.000000 -40.613400 0.000000
				CHANNELS 3 Zrotation Xrotation Yrotation
				JOINT LeftToe
				{
					OFFSET 0.000000 -1.003500 12.392200
					CHANNELS 3 Zrotation Xrotation Yrotation
					JOINT LeftToeEnd
					{
						OFFSET 0.000000 1.088300 5.767000
						CHANNELS 3 Zrotation Xrotation Yrotation
						End Site
						{
						    OFFSET 0.000000 0.927200 4.913300
						}
					}
				}
			}
		}
	}
	JOINT Spine
	{
		OFFSET 0.000000 15.108100 0.000000
		CHANNELS 3 Zrotation Xrotation Yrotation
		JOINT Spine1
		{
			OFFSET 0.000000 12.828000 0.000000
			CHANNELS 3 Zrotation Xrotation Yrotation
			JOINT Spine2
			{
				OFFSET 0.000000 11.155500 0.000000
				CHANNELS 3 Zrotation Xrotation Yrotation
				JOINT LeftShoulder
				{
					OFFSET 2.000000 11.155500 0.000000
					CHANNELS 3 Zrotation Xrotation Yrotation
					JOINT LeftArm
					{
						OFFSET 15.139800 0.000000 0.000000
						CHANNELS 3 Zrotation Xrotation Yrotation
						JOINT LeftForeArm
						{
							OFFSET 0.000000 -26.627300 0.000000
							CHANNELS 3 Zrotation Xrotation Yrotation
							JOINT LeftHand
							{
								OFFSET 0.000000 -24.932400 0.000000
								CHANNELS 3 Zrotation Xrotation Yrotation
								JOINT LeftFinger0
								{
									OFFSET 0.000000 -8.640100 0.000000
									CHANNELS 3 Zrotation Xrotation Yrotation
									End Site
									{
									    OFFSET 0.000000 -5.000000 0.000000
									}
								}
							}
						}
					}
				}
				JOINT RightShoulder
				{
					OFFSET -2.000000 11.155500 0.000000
					CHANNELS 3 Zrotation Xrotation Yrotation
					JOINT RightArm
					{
						OFFSET -15.139800 0.000000 0.000000
						CHANNELS 3 Zrotation Xrotation Yrotation
						JOINT RightForeArm
						{
							OFFSET 0.000000 -26.627300 0.000000
							CHANNELS 3 Zrotation Xrotation Yrotation
							JOINT RightHand
							{
								OFFSET 0.000000 -24.932400 0.000000
								CHANNELS 3 Zrotation Xrotation Yrotation
								JOINT RightFinger0
								{
									OFFSET 0.000000 -8.640100 0.000000
									CHANNELS 3 Zrotation Xrotation Yrotation
									End Site
									{
									    OFFSET 0.000000 -5.000000 0.000000
									}
								}
							}
						}
					}
				}
				JOINT Neck
				{
					OFFSET 0.000000 11.155500 0.000000
					CHANNELS 3 Zrotation Xrotation Yrotation
					JOINT Head
					{
						OFFSET 0.000000 10.940000 0.000000
						CHANNELS 3 Zrotation Xrotation Yrotation
						JOINT HeadTip
						{
							OFFSET 0.000000 10.000000 0.000000
							CHANNELS 3 Zrotation Xrotation Yrotation
							End Site
							{
							    OFFSET 0.000000 5.000000 0.000000
							}
						}
					}
				}
			}
		}
	}
}
MOTION
Frames:	10
Frame Time:	0.033332
23.694400 86.417300 -43.428100 5.539658 -1.517746 98.523470 -8.247496 -7.873781 -8.772338 -0.000000 37.128154 -0.000000 19.138733 4.367882 -15.523952 -0.000000 -6.010861 0.000000 -0.000000 0.000000 -0.000000 4.355681 -4.353704 4.019754 -0.000000 14.997572 -0.000000 -10.405317 9.912273 15.057561 0.000000 -7.415501 0.000000 -0.000000 0.000000 -0.000000 -2.893869 7.207656 -0.598535 0.000000 4.778586 -0.000000 0.000000 0.000000 0.000000 -3.090719 0.000000 -3.405312 36.920590 -24.563039 -2.284227 180.000037 -70.135104 -180.000037 14.858024 -5.242002 -63.325793 -0.000000 0.000000 -0.000000 0.289077 -0.000000 -2.024206 -26.067030 -18.103294 8.029669 -0.027002 -89.677404 -0.026850 0.173406 -2.568461 15.335082 0.000000 -0.000000 -0.000000 0.000000 0.000000 0.000000 7.585961 2.641477 2.934534 -0.000000 -0.000000 -0.000000 
24.280400 86.376300 -43.329500 5.167726 -1.140006 100.147358 -8.196915 -6.875980 -8.691444 -0.000000 33.327293 0.000000 17.821436 1.864395 -16.587100 0.000000 -6.035988 -0.000000 -0.000000 0.000000 -0.000000 3.911546 -4.024807 2.435463 0.000000 13.940751 -0.000000 -10.417025 9.924414 15.046655 0.000000 -7.342323 -0.000000 -0.000000 0.000000 -0.000000 -3.437140 6.900231 0.314476 -0.000000 4.414565 -0.000000 0.000000 0.000000 0.000000 -3.343448 0.000000 -3.615337 38.129891 -24.446126 -3.482138 -180.000037 -71.829920 -180.000037 13.410478 -3.597275 -63.128363 -0.000000 0.000000 -0.000000 0.820959 0.000000 -1.861607 -27.463692 -19.513969 6.956518 -0.122556 -89.928939 -0.122404 0.238927 -2.955808 15.652771 -0.000000 0.000000 -0.000000 0.000000 0.000000 0.000000 7.795099 2.756668 1.276871 -0.000000 -0.000000 -0.000000 
24.814000 86.359600 -43.137200 4.734043 -0.730184 101.279108 -8.014417 -6.132765 -8.499492 -0.000000 29.844159 -0.000000 17.041778 0.082174 -16.630679 -0.000000 -6.040609 -0.000000 -0.000000 0.000000 -0.000000 3.597002 -3.667087 1.781947 -0.000000 12.826210 -0.000000 -10.442947 10.196254 14.600346 -0.000000 -7.213827 -0.000000 0.000000 -0.000000 -0.000000 -3.930902 6.357265 1.249318 -0.000000 4.489947 -0.000000 -0.000000 0.000000 -0.000000 -3.801318 -0.000000 -3.610765 39.110279 -23.706649 -4.485588 180.000037 -73.441257 180.000037 11.931448 -3.134223 -62.475091 -0.000000 0.000000 0.000000 0.863600 0.000000 -1.634559 -27.832382 -20.404044 6.738217 -0.020151 -89.567725 -0.019999 0.212770 -3.121689 15.928132 -0.000000 0.000000 -0.000000 -0.000000 0.000000 -0.000000 7.673501 2.455950 0.376313 -0.000000 0.000000 0.000000 
25.379000 86.322400 -42.879300 4.522922 -0.316278 102.091826 -7.717437 -5.381827 -8.801531 -0.000000 26.927815 -0.000000 17.127270 -0.304392 -15.246867 -0.000000 -6.111207 -0.000000 0.000000 -0.000000 -0.000000 3.384621 -3.081294 1.296408 0.000000 11.840166 -0.000000 -10.594952 10.325139 14.278161 -0.000000 -7.257659 0.000000 -0.000000 0.000000 -0.000000 -4.218008 6.047324 2.054618 -0.000000 4.612878 -0.000000 0.000000 0.000000 -0.000000 -4.316101 0.000000 -3.184639 39.802328 -22.922906 -5.842085 -180.000037 -75.310762 -180.000037 11.729561 -3.425919 -62.378575 0.000000 0.000000 0.000000 0.456420 0.000000 -1.365573 -27.331275 -20.785239 7.408573 -0.007367 -88.817674 -0.007216 0.594493 -3.039116 16.057720 -0.000000 0.000000 -0.000000 0.000000 0.000000 -0.000000 7.181488 2.287137 0.090101 0.000000 -0.000000 -0.000000 
25.959200 86.197700 -42.555700 4.151654 0.292896 102.672409 -7.540978 -4.827574 -9.620191 -0.000000 24.114570 -0.000000 18.514859 0.149158 -13.500857 -0.000000 -6.068075 -0.000000 0.000000 0.000000 -0.000000 2.969610 -2.713373 0.552959 -0.000000 11.172822 -0.000000 -10.903345 10.106386 14.386092 -0.000000 -7.348095 -0.000000 -0.000000 0.000000 -0.000000 -4.652554 5.596931 2.922572 -0.000000 4.642011 -0.000000 -0.000000 0.000000 -0.000000 -4.744744 0.000000 -2.792402 40.447427 -22.311445 -7.051850 -180.000037 -77.432452 -180.000037 11.069434 -5.331897 -64.780377 -0.000000 -0.000000 0.000000 0.125258 0.000000 -1.196844 -26.900338 -20.759955 8.922467 -0.004721 -88.155310 -0.004571 1.248529 -2.690557 16.272633 -0.000000 0.000000 -0.000000 -0.000000 0.000000 -0.000000 6.483746 2.310742 0.107503 -0.000000 0.000000 -0.000000 
26.533700 85.973600 -42.139200 3.653737 1.164035 103.086972 -7.306773 -4.154868 -9.421528 -0.000000 20.744861 -0.000000 15.862422 0.591186 -13.201767 -0.000000 -5.764509 -0.000000 -0.000000 0.000000 0.000000 2.399907 -2.787115 0.148947 0.000000 11.285491 -0.000000 -11.385674 9.620037 14.142050 -0.000000 -7.355050 -0.000000 -0.000000 0.000000 -0.000000 -5.388999 5.160779 3.820112 -0.000000 4.553096 -0.000000 -0.000000 0.000000 0.000000 -5.214523 0.000000 -2.827189 41.761764 -21.890500 -7.648519 180.000037 -78.516273 -180.000037 11.143193 -6.956105 -68.830305 -0.000000 0.000000 -0.000000 -0.061561 -0.000000 -0.888791 -26.929323 -20.505688 10.944217 -0.003967 -87.805317 -0.003818 2.032346 -2.569026 17.079116 -0.000000 0.000000 -0.000000 -0.000000 0.000000 0.000000 5.772048 2.194858 0.465040 -0.000000 0.000000 -0.000000 
27.094600 85.713300 -41.635200 3.370543 2.144010 103.233225 -7.227198 -3.885687 -5.889714 0.000000 20.994075 -0.000000 13.827567 -1.513943 -16.040488 -0.000000 -3.319754 -0.000000 -0.000000 -0.000000 -0.000000 1.791513 -3.024182 -0.332287 -0.000000 12.195371 0.000000 -11.840595 8.903026 14.198127 0.000000 -7.457652 -0.000000 -0.000000 -0.000000 -0.000000 -6.199535 5.237428 4.780712 -0.000000 4.370184 -0.000000 -0.000000 0.000000 -0.000000 -5.549037 -0.000000 -2.731362 43.226103 -22.392143 -7.525369 180.000037 -79.166426 -180.000037 12.327201 -8.931616 -68.612839 -0.000000 0.000000 0.000000 -0.524427 0.000000 -0.431347 -27.303157 -20.705611 13.325298 -0.003674 -87.630423 -0.003525 2.432564 -3.198913 17.714101 0.000000 -0.000000 -0.000000 -0.000000 0.000000 -0.000000 5.041725 1.652664 1.098983 -0.000000 -0.000000 -0.000000 
27.791300 85.680800 -41.071400 4.380660 2.188466 103.802102 -6.646859 -2.153424 -6.191583 -0.000000 20.576048 -0.000000 13.953884 -1.735599 -15.843176 0.000000 -2.208951 0.000000 -0.000000 0.000000 -0.000000 2.358370 -2.673330 -1.563531 -0.000000 13.989532 -0.000000 -12.252801 8.001990 14.431919 -0.000000 -7.560735 -0.000000 0.000000 0.000000 -0.000000 -5.333110 6.477765 5.178650 0.000000 4.637195 -0.000000 0.000000 0.000000 0.000000 -6.207921 -0.000000 -2.636561 44.291467 -23.986952 -6.739066 -180.000037 -80.072321 180.000037 15.346849 -10.350075 -66.877286 0.000000 0.000000 -0.000000 -1.622161 0.000000 -0.147019 -27.928954 -22.271098 15.756251 -0.003425 -87.458057 -0.003276 2.263036 -4.334655 18.836303 -0.000000 0.000000 -0.000000 0.000000 0.000000 0.000000 3.774230 0.490812 1.883558 0.000000 0.000000 -0.000000 
28.436100 85.664000 -40.431600 4.960441 1.696956 105.173322 -5.580974 -0.383950 -7.524370 -0.000000 19.394705 -0.000000 14.549757 -2.038953 -15.417628 -0.000000 -2.101959 -0.000000 -0.000000 -0.000000 -0.000000 3.512178 -3.994302 -2.134896 0.000000 17.504938 -0.000000 -12.714829 7.085409 13.308695 0.000000 -7.943003 0.000000 -0.000000 0.000000 -0.000000 -3.873712 6.870794 4.961024 -0.000000 5.290438 -0.000000 -0.000000 0.000000 -0.000000 -6.027308 -0.000000 -3.051060 44.077798 -26.254757 -5.368466 -180.000037 -81.542178 180.000037 17.721143 -11.215878 -67.394366 -0.000000 -0.000000 0.000000 -3.211675 -0.000000 0.245864 -28.924558 -24.653466 17.254420 -0.005123 -88.300000 -0.004973 1.307451 -6.257671 19.368114 -0.000000 0.000000 -0.000000 -0.000000 0.000000 -0.000000 2.651859 -0.595631 2.225055 0.000000 0.000000 -0.000000 
29.012900 85.573000 -39.725400 5.519997 0.956826 106.633039 -3.975302 1.459606 -8.621729 -0.000000 17.686765 -0.000000 14.369570 -2.310036 -15.595898 -0.000000 -2.563734 -0.000000 -0.000000 0.000000 -0.000000 5.237165 -6.261919 -1.233467 0.000000 22.273902 0.000000 -13.491834 6.565832 10.637802 -0.000000 -8.777054 -0.000000 -0.000000 -0.000000 0.000000 -2.260149 7.646426 5.038113 -0.000000 5.391936 -0.000000 -0.000000 -0.000000 -0.000000 -5.669901 -0.000000 -4.027012 44.226188 -29.289208 -3.426470 180.000037 -83.668129 -180.000037 19.262596 -12.333864 -69.397295 0.000000 0.000000 -0.000000 -4.778260 -0.000000 0.378288 -30.707112 -28.838876 17.595274 -0.092449 -89.905792 -0.092297 -0.057274 -7.774775 19.015392 -0.000000 0.000000 -0.000000 -0.000000 -0.000000 -0.000000 1.962157 -1.765366 2.051107 -0.000000 0.000000 0.000000 
